<svg width="71" height="71" viewBox="0 0 71 71" fill="none" xmlns="http://www.w3.org/2000/svg">
<rect width="71" height="71" fill="#2B2724"/>
<path d="M33.7598 7C31.6576 8.95873 29.9715 11.3208 28.802 13.9453C27.6326 16.5697 27.0038 19.4029 26.9531 22.2756C26.9024 25.1484 27.4309 28.0019 28.507 30.666C29.5831 33.3301 31.1849 35.7502 33.2166 37.7818C35.2484 39.8135 37.6686 41.4151 40.3328 42.4912C42.997 43.5673 45.8507 44.0957 48.7236 44.0451C51.5965 43.9944 54.4298 43.3656 57.0544 42.1962C59.679 41.0268 62.0412 39.3408 64 37.2387C63.5533 44.4851 60.3593 51.2882 55.0694 56.2609C49.7794 61.2336 42.7918 64.0014 35.5314 64C19.7722 64 7 51.2284 7 35.4729C7 20.3107 18.8279 7.91287 33.7598 7Z" fill="#EDE8E2"/>
</svg>
