<svg width="90" height="90" viewBox="0 0 90 90" fill="none" xmlns="http://www.w3.org/2000/svg">
<circle cx="45" cy="45" r="45" fill="#EDE8E2"/>
<path d="M42.4965 4C39.4723 6.81782 37.0467 10.2159 35.3643 13.9914C33.682 17.767 32.7774 21.8427 32.7044 25.9755C32.6315 30.1082 33.3918 34.2133 34.9399 38.0458C36.488 41.8784 38.7923 45.3599 41.7151 48.2826C44.638 51.2054 48.1197 53.5095 51.9525 55.0575C55.7852 56.6056 59.8905 57.3658 64.0235 57.2929C68.1564 57.22 72.2323 56.3154 76.0081 54.6331C79.7838 52.9509 83.182 50.5254 86 47.5013C85.3574 57.9259 80.7626 67.7128 73.1524 74.8665C65.5423 82.0202 55.49 86.002 45.0452 86C22.3741 86 4 67.6269 4 44.961C4 23.1488 21.0156 5.31325 42.4965 4Z" fill="#2B2724"/>
</svg>
